<svg width="5000" height="400" viewBox="0 0 5000 400" fill="none" xmlns="http://www.w3.org/2000/svg">
<path d="M0 7.68236e-06V339.813C119.362 353.203 238.724 366.592 395.833 352.499C552.942 338.406 747.798 296.831 881.944 301.754C1016.09 306.677 1089.53 358.099 1215.28 367.904C1341.03 377.71 1519.09 345.899 1663.19 338.001C1807.3 330.102 1917.45 346.115 2027.78 355.218C2138.1 364.32 2248.6 366.512 2420.14 364.28C2591.68 362.047 2824.25 355.389 2961.81 367.904C3099.36 380.42 3141.9 412.108 3256.94 395.089C3371.99 378.071 3559.55 312.345 3739.58 302.66C3919.62 292.975 4092.14 339.332 4218.75 341.625C4345.36 343.919 4426.05 302.15 4548.61 294.505C4671.17 286.859 4835.58 313.336 5000 339.813V7.68236e-06H0Z" fill="#191F2D"/>
<path d="M0 5.82982e-05V189.389C135.308 217.382 270.615 245.374 406.25 240.135C541.885 234.895 677.847 196.424 812.5 188.483C947.154 180.542 1080.5 203.132 1243.06 200.263C1405.61 197.394 1597.38 169.067 1729.17 164.923C1860.95 160.778 1932.76 180.818 2045.14 200.263C2157.52 219.709 2310.48 238.56 2451.39 241.041C2592.29 243.521 2721.14 229.63 2843.75 224.73C2966.36 219.829 3082.72 223.92 3253.47 228.354C3424.22 232.789 3649.36 237.568 3784.72 241.947C3920.08 246.326 3965.66 250.306 4100.69 227.448C4235.73 204.591 4460.21 154.897 4625 144.081C4789.79 133.265 4894.9 161.327 5000 189.389V5.82982e-05H0Z" fill="#0F172A"/>
</svg>
