<svg width="5000" height="400" viewBox="0 0 5000 400" fill="none" xmlns="http://www.w3.org/2000/svg">
<path d="M0 400V45.5482C100.747 73.5707 201.494 101.593 350.694 92.8085C499.895 84.0237 697.549 38.4317 864.583 33.2606C1031.62 28.0894 1168.03 63.3392 1305.56 83.3564C1443.08 103.374 1581.71 108.158 1715.28 87.1372C1848.84 66.1162 1977.34 19.2894 2093.75 14.3565C2210.16 9.42351 2314.47 46.3844 2451.39 68.2331C2588.31 90.0819 2757.82 96.8186 2913.19 80.5208C3068.56 64.223 3209.79 24.8907 3364.58 8.68524C3519.38 -7.52024 3687.76 -0.598896 3819.44 25.6989C3951.13 51.9967 4046.14 97.671 4149.31 100.37C4252.47 103.069 4363.8 62.7929 4506.94 46.4934C4650.09 30.1939 4825.04 37.8711 5000 45.5482V400H0Z" fill="#171E31" fill-opacity="0.78"/>
<path d="M0 400V202.425C178.891 209.712 357.782 216.999 489.583 213.769C621.385 210.54 706.098 196.796 815.972 202.425C925.847 208.055 1060.88 233.06 1211.81 244.02C1362.73 254.98 1529.54 251.896 1687.5 239.293C1845.46 226.691 1994.58 204.572 2138.89 195.808C2283.2 187.044 2422.71 191.637 2531.25 192.027C2639.79 192.417 2717.37 188.605 2850.69 192.972C2984.02 197.339 3173.09 209.884 3305.56 225.113C3438.02 240.343 3513.89 258.257 3670.14 253.473C3826.39 248.69 4063.04 221.208 4239.58 197.699C4416.13 174.19 4532.59 154.654 4649.31 156.104C4766.03 157.554 4883.01 179.99 5000 202.425V400H0Z" fill="#0F172A"/>
</svg>
